<svg aria-hidden="true" style="position: absolute; width: 0; height: 0; overflow: hidden;" version="1.1" xmlns="http://www.w3.org/2000/svg" xmlns:xlink="http://www.w3.org/1999/xlink">
<defs>
<symbol id="icon-basket" viewBox="0 0 37 32">
<path d="M32.286 14q0.829 0 1.414 0.586t0.586 1.414-0.586 1.414-1.414 0.586h-0.234l-1.797 10.343q-0.126 0.72-0.688 1.189t-1.28 0.469h-20.001q-0.72 0-1.28-0.469t-0.689-1.189l-1.797-10.343h-0.234q-0.829 0-1.414-0.586t-0.586-1.414 0.586-1.414 1.414-0.586h28zM9.863 26.501q0.406-0.031 0.68-0.352t0.242-0.727l-0.499-6.501q-0.032-0.406-0.354-0.68t-0.726-0.24-0.68 0.351-0.242 0.727l0.501 6.501q0.031 0.392 0.32 0.657t0.68 0.265h0.080zM16.286 25.501v-6.501q0-0.406-0.297-0.703t-0.703-0.297-0.703 0.297-0.297 0.703v6.501q0 0.406 0.297 0.703t0.703 0.297 0.703-0.297 0.297-0.703zM22.286 25.501v-6.501q0-0.406-0.297-0.703t-0.703-0.297-0.703 0.297-0.297 0.703v6.501q0 0.406 0.297 0.703t0.703 0.297 0.703-0.297 0.297-0.703zM27.785 25.578l0.501-6.499q0.031-0.406-0.242-0.727t-0.68-0.352-0.727 0.24-0.352 0.681l-0.503 6.501q-0.030 0.406 0.243 0.727t0.68 0.352h0.078q0.391 0 0.68-0.265t0.32-0.656zM9.722 6.563l-1.454 6.438h-2.063l1.577-6.891q0.297-1.374 1.392-2.24t2.501-0.869h2.61q0-0.406 0.297-0.703t0.702-0.297h6q0.406 0 0.703 0.297t0.297 0.703h2.608q1.406 0 2.501 0.869t1.391 2.24l1.577 6.891h-2.062l-1.454-6.439q-0.171-0.688-0.709-1.125t-1.243-0.438h-2.608q0 0.406-0.297 0.703t-0.704 0.297h-6q-0.406 0-0.703-0.297t-0.297-0.703h-2.61q-0.703 0-1.242 0.438t-0.712 1.125z"></path>
</symbol>
<symbol id="icon-camera" viewBox="0 0 32 32">
<path d="M16.571 14.857q0-0.251-0.16-0.411t-0.411-0.16q-1.177 0-2.018 0.839t-0.839 2.018q0 0.251 0.16 0.411t0.411 0.16 0.411-0.16 0.16-0.411q0-0.714 0.501-1.214t1.214-0.501q0.251 0 0.411-0.16t0.16-0.411zM20.571 17.177q0 1.894-1.339 3.234t-3.232 1.337-3.232-1.337-1.339-3.234 1.339-3.231 3.232-1.341 3.232 1.341 1.339 3.231zM2.286 27.429h27.429v-2.286h-27.429v2.286zM22.857 17.177q0-2.838-2.009-4.846t-4.848-2.011-4.848 2.011-2.009 4.846 2.009 4.849 4.848 2.008 4.848-2.008 2.009-4.849zM4.571 5.714h6.857v-2.286h-6.857v2.286zM2.286 9.143h27.429v-4.571h-14.786l-1.143 2.286h-11.499v2.286zM32 4.571v22.857q0 0.946-0.67 1.616t-1.616 0.67h-27.429q-0.946 0-1.616-0.67t-0.67-1.616v-22.857q0-0.946 0.67-1.616t1.616-0.67h27.429q0.946 0 1.616 0.67t0.67 1.616z"></path>
</symbol>
<symbol id="icon-check" viewBox="0 0 32 32">
<path d="M26.663 6.27c-0.15-0.152-0.358-0.245-0.589-0.245s-0.438 0.094-0.588 0.245l-0 0-12.397 12.341c-0.15 0.152-0.358 0.246-0.589 0.246s-0.439-0.094-0.588-0.246l-0-0-5.434-5.531c-0.15-0.152-0.358-0.246-0.589-0.246s-0.439 0.094-0.588 0.246l-0 0-2.4 2.157c-0.16 0.165-0.247 0.37-0.247 0.583s0.088 0.441 0.248 0.606l5.475 5.747 3.534 3.559c0.151 0.15 0.359 0.243 0.589 0.243s0.438-0.093 0.589-0.243l-0 0 15.933-15.902c0.151-0.153 0.244-0.363 0.244-0.594s-0.093-0.442-0.244-0.594l0 0-2.358-2.373z"></path>
</symbol>
<symbol id="icon-chevron-left" viewBox="0 0 32 32">
<path d="M19.923 7.225c0.713 0.697 0.769 1.669 0 2.521l-5.995 6.251 5.995 6.254c0.769 0.853 0.713 1.825 0 2.519-0.712 0.697-1.915 0.651-2.583 0-0.67-0.649-7.205-7.512-7.205-7.512-0.33-0.319-0.534-0.766-0.534-1.261s0.205-0.941 0.534-1.26l0-0s6.534-6.859 7.202-7.512c0.669-0.654 1.872-0.697 2.583 0z"></path>
</symbol>
<symbol id="icon-chevron-right" viewBox="0 0 32 32">
<path d="M14.661 7.225c0.669 0.651 7.203 7.512 7.203 7.512 0.358 0.351 0.537 0.807 0.537 1.263s-0.179 0.912-0.537 1.259c0 0-6.534 6.863-7.202 7.512-0.669 0.651-1.872 0.697-2.583 0-0.714-0.695-0.77-1.665 0-2.519l5.992-6.253-5.995-6.251c-0.769-0.854-0.713-1.826 0-2.522 0.712-0.697 1.915-0.655 2.583 0z"></path>
</symbol>
<symbol id="icon-comments" viewBox="0 0 32 32">
<path d="M11.429 14q0-0.946-0.67-1.616t-1.616-0.67-1.616 0.67-0.67 1.616 0.67 1.616 1.616 0.67 1.616-0.67 0.67-1.616zM18.286 14q0-0.946-0.67-1.616t-1.616-0.67-1.616 0.67-0.67 1.616 0.67 1.616 1.616 0.67 1.616-0.67 0.67-1.616zM25.143 14q0-0.946-0.67-1.616t-1.616-0.67-1.616 0.67-0.67 1.616 0.67 1.616 1.616 0.67 1.616-0.67 0.67-1.616zM32 14q0 3.109-2.143 5.741t-5.822 4.16-8.035 1.528q-1.966 0-3.768-0.32-3.089 3.086-7.768 4.087-0.928 0.178-1.536 0.232-0.214 0.018-0.393-0.107t-0.232-0.32q-0.072-0.269 0.358-0.663 0.089-0.088 0.419-0.383t0.455-0.418 0.419-0.455 0.429-0.562 0.366-0.661 0.358-0.857 0.259-1.026 0.223-1.295q-2.606-1.607-4.098-3.866t-1.49-4.811q0-3.109 2.142-5.742t5.822-4.16 8.034-1.528 8.037 1.528 5.822 4.16 2.144 5.742z"></path>
</symbol>
<symbol id="icon-design" viewBox="0 0 32 32">
<path d="M6.057 6.834l0.686 0.686-2.806 2.811 2.189 2.189 2.819-2.821 0.64 0.64-2.819 2.823 2.16 2.16 6.416-6.417-7.81-7.768-6.395 6.394 2.114 2.114 2.808-2.809zM23.099 16.659l-6.416 6.417 2.16 2.16 2.821-2.823 0.64 0.642-2.819 2.821 2.187 2.189 2.808-2.808 0.686 0.686-2.807 2.808 2.114 2.114 6.393-6.394-7.766-7.811zM29.822 8.451c0.781-0.782 0.789-2.046 0.011-2.821l-3.511-3.511c-0.36-0.358-0.857-0.579-1.405-0.579-0.554 0-1.055 0.226-1.416 0.59l-2.172 2.172 6.32 6.32 2.171-2.171zM3.399 25.943l2.622 2.622 5.283-1.877-6.029-6.030-1.878 5.285zM20.649 4.942l-14.885 14.887 6.369 6.369 14.887-14.886-6.369-6.369zM8.656 19.817l11.982-11.983 0.697 0.697-11.979 11.985-0.697-0.697zM10.050 21.211l11.984-11.977 0.697 0.697-11.981 11.981-0.697-0.697zM11.448 22.608l11.981-11.979 0.697 0.697-11.977 11.981-0.699-0.697zM1.954 30.011l3.066-1.118-1.949-1.949-1.117 3.066z"></path>
</symbol>
<symbol id="icon-digital" viewBox="0 0 32 32">
<path d="M27.883 16.078c0.074-0.322 0.116-0.692 0.116-1.072 0-2.762-2.238-5.002-4.999-5.006h-0c-0.446 0-0.875 0.057-1.285 0.167-0.801-2.436-3.056-4.164-5.714-4.164-2.714 0-5.007 1.801-5.749 4.273l-0.011 0.043c-0.668-0.202-1.437-0.318-2.232-0.318-4.418 0-8 3.582-8 8 0 4.415 3.577 7.995 7.99 8h19c0.002 0 0.003 0 0.005 0 2.761 0 5-2.239 5-5 0-2.451-1.764-4.49-4.091-4.918l-0.031-0.005zM13 24l-5-5 2-2 3 3 7-7 2 2-9 9z"></path>
</symbol>
<symbol id="icon-dribbble" viewBox="0 0 32 32">
<path d="M20.571 26.786q-0.75-4.304-2.501-8.891h-0.034l-0.037 0.017q-0.286 0.107-0.768 0.295t-1.803 0.877-2.446 1.463-2.341 2.046-1.84 2.642l-0.266-0.198q3.285 2.678 7.464 2.678 2.358 0 4.571-0.926zM17.269 15.946q-0.377-0.875-0.949-1.982-5.551 1.658-12.016 1.658-0.018 0.126-0.018 0.375 0 2.214 0.785 4.223t2.214 3.598q0.891-1.589 2.206-2.974t2.545-2.222 2.331-1.447 1.777-0.857l0.661-0.232q0.072-0.018 0.232-0.063t0.232-0.080zM15.358 12.161q-2.143-3.802-4.358-6.749-2.463 1.159-4.177 3.319t-2.286 4.857q5.392 0 10.821-1.429zM27.571 17.858q-3.749-1.072-7.303-0.518 1.552 4.267 2.286 8.375 1.981-1.339 3.303-3.383t1.714-4.474zM13.197 4.625q-0.018 0-0.034 0.018 0.017-0.018 0.034-0.018zM23.734 7.214q-3.306-2.928-7.734-2.928-1.358 0-2.768 0.339 2.339 3.035 4.393 6.823 1.232-0.465 2.32-1.081t1.726-1.097 1.168-1.017 0.67-0.725zM27.714 15.877q-0.054-4.144-2.661-7.322l-0.018 0.018q-0.16 0.215-0.339 0.439t-0.777 0.794-1.269 1.079-1.786 1.161-2.349 1.152q0.446 0.946 0.786 1.696 0.034 0.107 0.117 0.312t0.134 0.295q0.64-0.089 1.329-0.126t1.312-0.034 1.234 0.026 1.143 0.072 1.008 0.097 0.857 0.117 0.651 0.107 0.446 0.080zM29.714 16q0 3.733-1.84 6.883t-4.99 4.991-6.885 1.84-6.88-1.84-4.994-4.991-1.837-6.883 1.84-6.883 4.987-4.991 6.883-1.84 6.885 1.84 4.991 4.991 1.839 6.883z"></path>
</symbol>
<symbol id="icon-equalizer" viewBox="0 0 32 32">
<path d="M28 14h0.501c0.825 0 1.501-0.674 1.501-1.501v-5c0-0.825-0.674-1.501-1.499-1.501h-0.502v-5.999h-4v6h-0.501c-0.825 0-1.501 0.674-1.501 1.499v5c0 0.825 0.674 1.501 1.499 1.501h0.502v18h4v-18zM24 8h4v4h-4v-4zM18.501 26c0.825 0 1.501-0.674 1.501-1.501v-5c0-0.825-0.674-1.501-1.499-1.501h-0.501v-17.999h-4v18h-0.501c-0.825 0-1.501 0.674-1.501 1.499v5c0 0.825 0.674 1.501 1.499 1.501h0.501v6h4v-6h0.501zM14 20h4v4h-4v-4zM8.501 14c0.825 0 1.501-0.674 1.501-1.501v-5c0-0.825-0.674-1.501-1.499-1.501h-0.502v-5.999h-4v6h-0.501c-0.825 0-1.501 0.674-1.501 1.499v5c0 0.825 0.674 1.501 1.499 1.501h0.502v18h4v-18h0.501zM4 8h4v4h-4v-4z"></path>
</symbol>
<symbol id="icon-eye" viewBox="0 0 32 32">
<path d="M16 12q1.625 0 2.811 1.189t1.189 2.811-1.189 2.811-2.811 1.189-2.811-1.189-1.189-2.811 1.189-2.811 2.811-1.189zM16 22.688q2.751 0 4.72-1.969t1.966-4.719-1.966-4.72-4.72-1.966-4.72 1.966-1.966 4.72 1.969 4.72 4.717 1.966zM16 6q4.937 0 8.937 2.751t5.751 7.249q-1.751 4.501-5.751 7.251t-8.937 2.751-8.937-2.751-5.751-7.251q1.751-4.498 5.751-7.248t8.937-2.752z"></path>
</symbol>
<symbol id="icon-facebook" viewBox="0 0 32 32">
<path d="M23.982 1.214v4.714h-2.805q-1.535 0-2.071 0.642t-0.537 1.927v3.375h5.234l-0.697 5.285h-4.537v13.554h-5.463v-13.554h-4.553v-5.282h4.553v-3.895q0-3.321 1.857-5.152t4.945-1.83q2.626 0 4.073 0.214z"></path>
</symbol>
<symbol id="icon-google-plus" viewBox="0 0 32 32">
<path d="M19.958 16.237q0 2.889-1.208 5.146t-3.445 3.528-5.126 1.271q-2.069 0-3.958-0.807t-3.25-2.166-2.167-3.25-0.805-3.959 0.805-3.957 2.167-3.25 3.25-2.167 3.958-0.806q3.973 0 6.819 2.666l-2.763 2.651q-1.625-1.569-4.055-1.569-1.709 0-3.16 0.862t-2.297 2.341-0.849 3.229 0.848 3.231 2.297 2.341 3.161 0.862q1.154 0 2.118-0.32t1.591-0.798 1.090-1.090 0.681-1.154 0.297-1.026h-5.777v-3.501h9.611q0.166 0.874 0.166 1.694zM32 14.542v2.917h-2.903v2.903h-2.917v-2.903h-2.903v-2.917h2.903v-2.903h2.917v2.903h2.903z"></path>
</symbol>
<symbol id="icon-home" viewBox="0 0 32 32">
<path d="M26.286 17.714v8.571q0 0.464-0.339 0.803t-0.803 0.339h-6.857v-6.857h-4.571v6.857h-6.857q-0.464 0-0.803-0.339t-0.339-0.803v-8.571q0-0.018 0.009-0.054t0.009-0.054l10.267-8.464 10.267 8.464q0.018 0.034 0.018 0.107zM30.267 16.482l-1.109 1.321q-0.142 0.16-0.374 0.197h-0.054q-0.232 0-0.375-0.126l-12.357-10.302-12.36 10.302q-0.214 0.144-0.429 0.126-0.231-0.034-0.374-0.197l-1.109-1.321q-0.142-0.178-0.123-0.419t0.197-0.384l12.838-10.696q0.571-0.464 1.36-0.464t1.357 0.464l4.358 3.642v-3.482q0-0.251 0.16-0.411t0.411-0.16h3.429q0.251 0 0.411 0.16t0.16 0.411v7.286l3.911 3.25q0.178 0.142 0.197 0.383t-0.126 0.419z"></path>
</symbol>
<symbol id="icon-instagram" viewBox="0 0 32 32">
<path d="M26.606 25.463v-11.569h-2.409q0.358 1.125 0.358 2.339 0 2.251-1.143 4.152t-3.109 3.009-4.286 1.106q-3.517 0-6.017-2.419t-2.501-5.847q0-1.214 0.358-2.339h-2.518v11.571q0 0.464 0.312 0.777t0.777 0.312h19.089q0.446 0 0.768-0.312t0.32-0.777zM21.536 15.946q0-2.214-1.616-3.777t-3.902-1.563q-2.267 0-3.883 1.563t-1.616 3.777 1.616 3.777 3.883 1.562q2.286 0 3.902-1.562t1.616-3.777zM26.607 9.518v-2.946q0-0.501-0.357-0.866t-0.875-0.366h-3.109q-0.517 0-0.874 0.366t-0.358 0.866v2.946q0 0.518 0.358 0.875t0.875 0.358h3.109q0.517 0 0.874-0.358t0.358-0.875zM29.714 5.803v20.393q0 1.447-1.035 2.482t-2.482 1.035h-20.393q-1.447 0-2.482-1.035t-1.035-2.482v-20.393q0-1.447 1.035-2.482t2.482-1.035h20.393q1.447 0 2.482 1.035t1.035 2.482z"></path>
</symbol>
<symbol id="icon-laptop" viewBox="0 0 32 32">
<path d="M6.934 22.4q-1.099 0-1.883-0.783t-0.784-1.883v-11.734q0-1.099 0.783-1.883t1.882-0.783h18.134q1.099 0 1.883 0.783t0.785 1.883v11.734q0 1.099-0.783 1.883t-1.883 0.783h-18.134zM6.4 8v11.734q0 0.217 0.158 0.377t0.377 0.157h18.133q0.217 0 0.377-0.158t0.157-0.377v-11.733q0-0.217-0.157-0.377t-0.377-0.157h-18.133q-0.217 0-0.377 0.158t-0.158 0.376zM29.334 23.466h2.666v1.6q0 0.666-0.783 1.131t-1.883 0.469h-26.666q-1.099 0-1.883-0.469t-0.784-1.13v-1.6h29.337zM17.334 25.066q0.266 0 0.266-0.266t-0.266-0.266h-2.666q-0.266 0-0.266 0.266t0.267 0.266h2.666z"></path>
</symbol>
<symbol id="icon-marker" viewBox="0 0 32 32">
<path d="M16 0c-6.629 0-12 5.371-12 12s12 20 12 20 12-13.371 12-20-5.371-12-12-12zM16 20c-4.418 0-8-3.582-8-8s3.582-8 8-8v0c4.418 0 8 3.582 8 8s-3.582 8-8 8v0zM16 8c-2.209 0-4 1.791-4 4s1.791 4 4 4v0c2.209 0 4-1.791 4-4s-1.791-4-4-4v0z"></path>
</symbol>
<symbol id="icon-picture" viewBox="0 0 32 32">
<path d="M20 12l-6 10-3.97-2.896-0.030-0.103-0.237-0.091 0.183 0.134-5.946 4.957v2h24v-2l-3.001-9-4.999-3zM9 13c1.657 0 3-1.343 3-3s-1.343-3-3-3v0c-1.657 0-3 1.343-3 3s1.343 3 3 3v0zM31 2h-30c-0.552 0-1 0.448-1 1v0 26c0 0.553 0.448 1 1 1h30c0.553 0 1-0.446 1-1v-26c0-0.552-0.448-1-1-1v0zM30 27c0 0.553-0.446 1-1 1h-26c-0.552 0-1-0.448-1-1v0-22c0-0.552 0.448-1 1-1h26c0.553 0 1 0.448 1 1v22z"></path>
</symbol>
<symbol id="icon-pinterest" viewBox="0 0 32 32">
<path d="M4.571 11.661q0-1.928 0.67-3.634t1.848-2.975 2.714-2.194 3.303-1.394 3.608-0.464q2.823 0 5.25 1.189t3.945 3.454 1.519 5.125q0 1.714-0.339 3.358t-1.072 3.161-1.786 2.67-2.59 1.84-3.375 0.686q-1.214 0-2.411-0.571t-1.714-1.57q-0.177 0.697-0.499 2.009t-0.419 1.696-0.366 1.269-0.465 1.266-0.571 1.117-0.823 1.383-1.106 1.546l-0.251 0.089-0.16-0.178q-0.267-2.803-0.267-3.358 0-1.642 0.385-3.688t1.189-5.134 0.926-3.623q-0.571-1.162-0.571-3.019 0-1.482 0.929-2.786t2.358-1.303q1.089 0 1.696 0.722t0.606 1.831q0 1.177-0.785 3.41t-0.786 3.339q0 1.125 0.803 1.866t1.946 0.741q0.983 0 1.822-0.446t1.402-1.214 0.999-1.696 0.679-1.974 0.358-1.982 0.118-1.777q0-3.089-1.954-4.811t-5.101-1.729q-3.57 0-5.963 2.313t-2.393 5.866q0 0.786 0.223 1.518t0.482 1.161 0.482 0.811 0.223 0.545q0 0.501-0.267 1.303t-0.661 0.805q-0.034 0-0.304-0.053-0.911-0.267-1.616-1t-1.089-1.689-0.581-1.928-0.198-1.902z"></path>
</symbol>
<symbol id="icon-search" viewBox="0 0 32 32">
<path d="M21.714 13.857q0-3.303-2.349-5.651t-5.651-2.349-5.651 2.349-2.349 5.651 2.349 5.651 5.651 2.349 5.651-2.349 2.349-5.651zM30.857 28.714q0 0.928-0.679 1.607t-1.607 0.68q-0.965 0-1.607-0.679l-6.126-6.106q-3.195 2.214-7.123 2.214-2.552 0-4.882-0.991t-4.018-2.679-2.679-4.018-0.993-4.886 0.994-4.885 2.679-4.017 4.016-2.68 4.882-0.989 4.885 0.991 4.018 2.68 2.679 4.018 0.991 4.885q0 3.928-2.213 7.125l6.126 6.126q0.659 0.659 0.659 1.606z"></path>
</symbol>
<symbol id="icon-talk" viewBox="0 0 32 32">
<path d="M25.042 18.672v-12.487c0-1.234-1-2.237-2.237-2.237h-19.571c-1.234 0-2.237 1.001-2.237 2.237v12.487c0 1.234 1.001 2.235 2.237 2.235h3.729v5.137l5.703-5.138h10.137c0.001 0 0.001 0 0.002 0 1.235 0 2.235-1.001 2.235-2.235v0zM28.766 8.857h-2.8v10.91c0 0.937-1.215 2.142-2.152 2.142s-10.945 0.055-10.945 0.055c0 1.234 1.001 1.986 2.237 1.986h4.309l5.623 5.102-0.008-5.102h3.737c1.234 0 2.234-0.751 2.234-1.986v-10.933c0-1.234-1-2.174-2.235-2.174z"></path>
</symbol>
<symbol id="icon-target" viewBox="0 0 32 32">
<path d="M16 8c-4.418 0-8 3.582-8 8s3.582 8 8 8v0c4.418 0 8-3.582 8-8s-3.582-8-8-8v0zM16 22c-3.314 0-6-2.686-6-6s2.686-6 6-6v0c3.314 0 6 2.686 6 6s-2.686 6-6 6v0zM16 0c-8.837 0-16 7.163-16 16s7.163 16 16 16 16-7.163 16-16-7.163-16-16-16zM16 28c-6.629 0-12-5.371-12-12s5.371-12 12-12 12 5.371 12 12-5.371 12-12 12zM16 13c-1.657 0-3 1.343-3 3s1.343 3 3 3v0c1.657 0 3-1.343 3-3s-1.343-3-3-3v0z"></path>
</symbol>
<symbol id="icon-twitter" viewBox="0 0 32 32">
<path d="M30.071 7.286q-1.197 1.749-2.891 2.983 0.017 0.249 0.017 0.749 0 2.32-0.679 4.634t-2.063 4.438-3.295 3.76-4.606 2.606-5.77 0.974q-4.839 0-8.857-2.59 0.625 0.072 1.394 0.072 4.017 0 7.16-2.464-1.874-0.034-3.358-1.151t-2.034-2.848q0.589 0.091 1.088 0.091 0.768 0 1.518-0.198-2-0.411-3.312-1.991t-1.312-3.669v-0.073q1.214 0.68 2.606 0.734-1.177-0.786-1.874-2.054t-0.697-2.75q0-1.573 0.789-2.912 2.16 2.661 5.257 4.259t6.635 1.776q-0.143-0.679-0.143-1.321 0-2.393 1.687-4.080t4.082-1.69q2.501 0 4.214 1.823 1.946-0.375 3.661-1.394-0.661 2.055-2.537 3.179 1.662-0.178 3.322-0.891z"></path>
</symbol>
<symbol id="icon-users" viewBox="0 0 32 32">
<path d="M9.883 16q-2.699 0.083-4.417 2.134h-2.232q-1.368 0-2.301-0.674t-0.934-1.978q0-5.881 2.066-5.881 0.101 0 0.726 0.349t1.623 0.709 1.985 0.36q1.115 0 2.215-0.384-0.083 0.617-0.083 1.099 0 2.317 1.351 4.266zM27.735 26.617q0 2-1.218 3.158t-3.234 1.159h-14.565q-2.017 0-3.234-1.159t-1.216-3.158q0-0.885 0.057-1.726t0.234-1.817 0.441-1.806 0.714-1.626 1.034-1.351 1.425-0.891 1.858-0.334q0.167 0 0.717 0.359t1.217 0.8 1.783 0.8 2.251 0.359 2.248-0.359 1.783-0.8 1.218-0.8 0.717-0.359q1.017 0 1.858 0.334t1.425 0.891 1.033 1.351 0.717 1.623 0.441 1.809 0.233 1.817 0.057 1.726zM10.665 5.333q0 1.767-1.25 3.017t-3.015 1.25-3.017-1.25-1.249-3.017 1.249-3.013 3.017-1.253 3.017 1.25 1.249 3.017zM22.399 11.733q0 2.649-1.874 4.526t-4.525 1.874-4.526-1.874-1.874-4.526 1.874-4.526 4.526-1.872 4.526 1.874 1.874 4.526zM31.999 15.481q0 1.303-0.934 1.977t-2.299 0.674h-2.232q-1.717-2.049-4.417-2.133 1.351-1.949 1.351-4.265 0-0.483-0.083-1.099 1.101 0.383 2.217 0.383 0.983 0 1.983-0.358t1.623-0.709 0.727-0.35q2.066-0.002 2.066 5.883zM29.865 5.333q0 1.767-1.25 3.017t-3.015 1.25-3.017-1.25-1.249-3.017 1.249-3.013 3.017-1.253 3.017 1.25 1.249 3.017z"></path>
</symbol>
<symbol id="icon-youtube" viewBox="0 0 32 32">
<path d="M22.857 16q0-0.661-0.537-0.965l-9.143-5.714q-0.552-0.358-1.16-0.034-0.589 0.319-0.589 0.999v11.429q0 0.679 0.589 1 0.286 0.143 0.553 0.143 0.357 0 0.606-0.178l9.143-5.714q0.538-0.304 0.538-0.965zM32 16q0 1.714-0.018 2.679t-0.152 2.438-0.4 2.634q-0.286 1.303-1.234 2.197t-2.213 1.035q-3.967 0.446-11.983 0.446t-11.982-0.446q-1.269-0.143-2.223-1.035t-1.24-2.197q-0.251-1.161-0.384-2.634t-0.153-2.438-0.018-2.679 0.018-2.679 0.152-2.438 0.4-2.634q0.286-1.303 1.234-2.197t2.213-1.035q3.967-0.446 11.983-0.446t11.982 0.446q1.269 0.143 2.223 1.035t1.24 2.197q0.251 1.161 0.384 2.634t0.153 2.438 0.018 2.679z"></path>
</symbol>
</defs>
</svg>
